<svg 
   xmlns:dc="http://purl.org/dc/elements/1.1/"
   xmlns:cc="http://creativecommons.org/ns#"
   xmlns:rdf="http://www.w3.org/1999/02/22-rdf-syntax-ns#"
   xmlns:svg="http://www.w3.org/2000/svg"
   xmlns="http://www.w3.org/2000/svg"
   version="1.1"
 font-size="10px" font-family="sans-serif" fill="none" stroke="none" stroke-width="1.5" width="2400" height="2400"><g><g><path transform="translate(1200, 1200)" d="M0,400A400,400 0 1,1 0,-400A400,400 0 1,1 0,400Z" fill="rgb(156,158,222)" fill-rule="evenodd" stroke="rgb(255,255,255)" stroke-width="1"/><path transform="translate(1200, 1200)" d="M-63.98495903123145,-1198.2929212082377A1200,1200 0 0,1 -31.46695204687964,-1199.58735860665L-10.488984015626547,-399.86245286888334A400,400 0 0,0 -21.328319677077147,-399.43097373607924Z" fill="rgb(115,117,181)" fill-rule="evenodd" stroke="rgb(255,255,255)" stroke-width="1"/><path transform="translate(1200, 1200)" d="M627.0071064558242,-1023.1627868789476A1200,1200 0 0,1 874.5268418102423,-821.7072489356556L291.5089472700808,-273.9024163118852A400,400 0 0,0 209.00236881860806,-341.05426229298257Z" fill="rgb(115,117,181)" fill-rule="evenodd" stroke="rgb(255,255,255)" stroke-width="1"/><path transform="translate(1200, 1200)" d="M97.62102090274028,-1196.0226320090715A1200,1200 0 0,1 165.64749548606957,-1188.5120559923625L55.21583182868986,-396.1706853307875A400,400 0 0,0 32.54034030091343,-398.67421066969047Z" fill="rgb(115,117,181)" fill-rule="evenodd" stroke="rgb(255,255,255)" stroke-width="1"/><path transform="translate(1200, 1200)" d="M305.1382045756994,1160.5561925681664A1200,1200 0 0,1 -589.3442151715133,1045.3101913039368L-196.44807172383776,348.4367304346456A400,400 0 0,0 101.71273485856646,386.8520641893888Z" fill="rgb(115,117,181)" fill-rule="evenodd" stroke="rgb(255,255,255)" stroke-width="1"/><path transform="translate(1200, 1200)" d="M-89.3905581146619,-1196.6659216840553A1200,1200 0 0,1 -63.98495903123171,-1198.2929212082377L-21.328319677077236,-399.43097373607924A400,400 0 0,0 -29.7968527048873,-398.88864056135174Z" fill="rgb(115,117,181)" fill-rule="evenodd" stroke="rgb(255,255,255)" stroke-width="1"/><path transform="translate(1200, 1200)" d="M165.64749548606957,-1188.5120559923625A1200,1200 0 0,1 241.9677818896107,-1175.35168886909L80.6559272965369,-391.78389628969666A400,400 0 0,0 55.21583182868986,-396.1706853307875Z" fill="rgb(115,117,181)" fill-rule="evenodd" stroke="rgb(255,255,255)" stroke-width="1"/><path transform="translate(1200, 1200)" d="M1192.5318256655498,133.67065786772508A1200,1200 0 0,1 987.2450890809022,682.1635684244958L329.0816963603007,227.3878561414986A400,400 0 0,0 397.5106085551833,44.556885955908356Z" fill="rgb(115,117,181)" fill-rule="evenodd" stroke="rgb(255,255,255)" stroke-width="1"/><path transform="translate(1200, 1200)" d="M325.7766516923732,-1154.932713716304A1200,1200 0 0,1 437.297903069543,-1117.4840240338922L145.76596768984766,-372.4946746779641A400,400 0 0,0 108.59221723079106,-384.977571238768Z" fill="rgb(115,117,181)" fill-rule="evenodd" stroke="rgb(255,255,255)" stroke-width="1"/><path transform="translate(1200, 1200)" d="M874.5268418102423,-821.7072489356556A1200,1200 0 0,1 1130.5180475166967,-402.40395653998735L376.83934917223223,-134.13465217999578A400,400 0 0,0 291.5089472700808,-273.9024163118852Z" fill="rgb(115,117,181)" fill-rule="evenodd" stroke="rgb(255,255,255)" stroke-width="1"/><path transform="translate(1200, 1200)" d="M-101.95906937026605,-1195.6606325262821A1200,1200 0 0,1 7.347880794884119e-14,-1200L2.4492935982947064e-14,-400A400,400 0 0,0 -33.98635645675535,-398.5535441754274Z" fill="rgb(115,117,181)" fill-rule="evenodd" stroke="rgb(255,255,255)" stroke-width="1"/><path transform="translate(1200, 1200)" d="M-589.3442151715133,1045.3101913039368A1200,1200 0 0,1 -2.2043642384652357e-13,-1200L-7.347880794884119e-14,-400A400,400 0 0,0 -196.44807172383776,348.4367304346456Z" fill="rgb(115,117,181)" fill-rule="evenodd" stroke="rgb(255,255,255)" stroke-width="1"/><path transform="translate(1200, 1200)" d="M241.9677818896107,-1175.35168886909A1200,1200 0 0,1 325.7766516923732,-1154.932713716304L108.59221723079106,-384.977571238768A400,400 0 0,0 80.6559272965369,-391.78389628969666Z" fill="rgb(115,117,181)" fill-rule="evenodd" stroke="rgb(255,255,255)" stroke-width="1"/><path transform="translate(1200, 1200)" d="M47.11818363042529,-1199.07459182962A1200,1200 0 0,1 97.62102090274028,-1196.0226320090715L32.54034030091343,-398.67421066969047A400,400 0 0,0 15.706061210141764,-399.6915306098733Z" fill="rgb(115,117,181)" fill-rule="evenodd" stroke="rgb(255,255,255)" stroke-width="1"/><path transform="translate(1200, 1200)" d="M437.297903069543,-1117.4840240338922A1200,1200 0 0,1 627.0071064558242,-1023.1627868789476L209.00236881860806,-341.05426229298257A400,400 0 0,0 145.76596768984766,-372.4946746779641Z" fill="rgb(115,117,181)" fill-rule="evenodd" stroke="rgb(255,255,255)" stroke-width="1"/><path transform="translate(1200, 1200)" d="M-101.95906937026578,-1195.6606325262821A1200,1200 0 0,1 -100.63482834118307,-1195.7728176057276L-33.54494278039436,-398.5909392019092A400,400 0 0,0 -33.98635645675526,-398.5535441754274Z" fill="rgb(115,117,181)" fill-rule="evenodd" stroke="rgb(255,255,255)" stroke-width="1"/><path transform="translate(1200, 1200)" d="M-100.63482834118307,-1195.7728176057276A1200,1200 0 0,1 -89.39055811466163,-1196.6659216840553L-29.79685270488721,-398.88864056135174A400,400 0 0,0 -33.54494278039436,-398.5909392019092Z" fill="rgb(115,117,181)" fill-rule="evenodd" stroke="rgb(255,255,255)" stroke-width="1"/><path transform="translate(1200, 1200)" d="M-31.466952046879907,-1199.58735860665A1200,1200 0 0,1 7.410514233191871,-1199.9771182313434L2.470171411063957,-399.9923727437812A400,400 0 0,0 -10.488984015626636,-399.86245286888334Z" fill="rgb(115,117,181)" fill-rule="evenodd" stroke="rgb(255,255,255)" stroke-width="1"/><path transform="translate(1200, 1200)" d="M987.2450890809022,682.1635684244958A1200,1200 0 0,1 305.1382045756994,1160.5561925681664L101.71273485856646,386.8520641893888A400,400 0 0,0 329.0816963603007,227.3878561414986Z" fill="rgb(115,117,181)" fill-rule="evenodd" stroke="rgb(255,255,255)" stroke-width="1"/><path transform="translate(1200, 1200)" d="M1130.5180475166967,-402.4039565399874A1200,1200 0 0,1 1192.5318256655498,133.67065786772503L397.5106085551833,44.55688595590834A400,400 0 0,0 376.83934917223223,-134.1346521799958Z" fill="rgb(115,117,181)" fill-rule="evenodd" stroke="rgb(255,255,255)" stroke-width="1"/><path transform="translate(1200, 1200)" d="M7.410514233191871,-1199.9771182313434A1200,1200 0 0,1 47.11818363042529,-1199.07459182962L15.706061210141764,-399.6915306098733A400,400 0 0,0 2.470171411063957,-399.9923727437812Z" fill="rgb(115,117,181)" fill-rule="evenodd" stroke="rgb(255,255,255)" stroke-width="1"/></g><g><text pointer-events="none" dy=".35em" transform="translate(1200, 1200) rotate(180)" fill="rgb(0,0,0)" text-anchor="middle">Budget</text><text pointer-events="none" dy=".35em" transform="translate(1168.18, 400.633) rotate(-92.2796)" fill="rgb(0,0,0)" text-anchor="middle">Agriculture</text><text pointer-events="none" dy=".35em" transform="translate(1705, 579.533) rotate(-50.858)" fill="rgb(0,0,0)" text-anchor="middle">Veterans Benefits and Services</text><text pointer-events="none" dy=".35em" transform="translate(1287.79, 404.832) rotate(-83.6997)" fill="rgb(0,0,0)" text-anchor="middle">Administration of Justice</text><text pointer-events="none" dy=".35em" transform="translate(1097.77, 1993.44) rotate(97.3416)" fill="rgb(0,0,0)" text-anchor="middle">National Defense</text><text pointer-events="none" dy=".35em" transform="translate(1148.87, 401.635) rotate(-93.6643)" fill="rgb(0,0,0)" text-anchor="middle">Community and Regional Development</text><text pointer-events="none" dy=".35em" transform="translate(1335.94, 411.635) rotate(-80.2164)" fill="rgb(0,0,0)" text-anchor="middle">Allowances</text><text pointer-events="none" dy=".35em" transform="translate(1949.24, 1480.42) rotate(20.5196)" fill="rgb(0,0,0)" text-anchor="middle">Medicare</text><text pointer-events="none" dy=".35em" transform="translate(1454.66, 441.616) rotate(-71.438)" fill="rgb(0,0,0)" text-anchor="middle">Education, Training, Employment, and Social Services</text><text pointer-events="none" dy=".35em" transform="translate(1882.81, 783.136) rotate(-31.4047)" fill="rgb(0,0,0)" text-anchor="middle">Health</text><text pointer-events="none" dy=".35em" transform="translate(426.211, 996.898) rotate(194.707)" fill="rgb(0,0,0)" text-anchor="middle">Social Security</text><text pointer-events="none" dy=".35em" transform="translate(1389.37, 422.736) rotate(-76.3074)" fill="rgb(0,0,0)" text-anchor="middle">International Affairs</text><text pointer-events="none" dy=".35em" transform="translate(1248.26, 401.457) rotate(-86.5417)" fill="rgb(0,0,0)" text-anchor="middle">Natural Resources and Environment</text><text pointer-events="none" dy=".35em" transform="translate(1556.16, 483.654) rotate(-63.564)" fill="rgb(0,0,0)" text-anchor="middle">Transportation</text><text pointer-events="none" dy=".35em" transform="translate(1191.98, 400.04) rotate(-90.5744)" fill="rgb(0,0,0)" text-anchor="middle">General Government</text><text pointer-events="none" dy=".35em" transform="translate(1659.36, 1854.97) rotate(54.9563)" fill="rgb(0,0,0)" text-anchor="middle">Income Security</text><text pointer-events="none" dy=".35em" transform="translate(1994.7, 1108.07) rotate(-6.59872)" fill="rgb(0,0,0)" text-anchor="middle">Net Interest</text><text pointer-events="none" dy=".35em" transform="translate(1218.18, 400.207) rotate(-88.6979)" fill="rgb(0,0,0)" text-anchor="middle">General Science, Space, and Technology</text></g></g></svg>