<svg 

   xmlns:dc="http://purl.org/dc/elements/1.1/"
   xmlns:cc="http://creativecommons.org/ns#"
   xmlns:rdf="http://www.w3.org/1999/02/22-rdf-syntax-ns#"
   xmlns:svg="http://www.w3.org/2000/svg"
   xmlns="http://www.w3.org/2000/svg"
   version="1.1"


font-size="10px" font-family="sans-serif" fill="none" stroke="none" stroke-width="1.5" width="2400" height="2400"><g><g><path transform="translate(1200, 1200)" d="M0,240A240,240 0 1,1 0,-240A240,240 0 1,1 0,240Z" fill="rgb(156,158,222)" fill-rule="evenodd" stroke="rgb(255,255,255)" stroke-width="1"/><path transform="translate(1200, 1200)" d="M-39.71853628584325,-718.903636014807A720,720 0 0,1 -19.53354292349784,-719.7349794895729L-6.51118097449928,-239.9116598298576A240,240 0 0,0 -13.239512095281082,-239.63454533826902Z" fill="rgb(115,117,181)" fill-rule="evenodd" stroke="rgb(255,255,255)" stroke-width="1"/><path transform="translate(1200, 1200)" d="M-66.19756047640541,-1198.1727266913451A1200,1200 0 0,1 -59.38364429437151,-1198.5297588255034L-35.630186576622904,-719.1178552953021A720,720 0 0,0 -39.71853628584325,-718.903636014807Z" fill="rgb(74,85,132)" fill-rule="evenodd" stroke="rgb(255,255,255)" stroke-width="1"/><path transform="translate(1200, 1200)" d="M-59.38364429437151,-1198.5297588255034A1200,1200 0 0,1 -32.5559048724964,-1199.5582991492881L-19.53354292349784,-719.7349794895729A720,720 0 0,0 -35.630186576622904,-719.1178552953021Z" fill="rgb(74,85,132)" fill-rule="evenodd" stroke="rgb(255,255,255)" stroke-width="1"/><path transform="translate(1200, 1200)" d="M338.4152121968793,-635.5117183449422A720,720 0 0,1 422.61263952111295,-582.9224278726954L140.870879840371,-194.30747595756515A240,240 0 0,0 112.8050707322931,-211.83723944831408Z" fill="rgb(115,117,181)" fill-rule="evenodd" stroke="rgb(255,255,255)" stroke-width="1"/><path transform="translate(1200, 1200)" d="M581.4645157510912,-1049.7137785712584A1200,1200 0 0,1 635.2202165090355,-1018.0841205608768L381.13212990542127,-610.8504723365261A720,720 0 0,0 348.87870945065475,-629.8282671427551Z" fill="rgb(206,219,156)" fill-rule="evenodd" stroke="rgb(255,255,255)" stroke-width="1"/><path transform="translate(1200, 1200)" d="M635.2202165090355,-1018.0841205608768A1200,1200 0 0,1 704.3543992018551,-971.5373797878256L422.61263952111307,-582.9224278726954A720,720 0 0,0 381.13212990542127,-610.8504723365261Z" fill="rgb(206,219,156)" fill-rule="evenodd" stroke="rgb(255,255,255)" stroke-width="1"/><path transform="translate(1200, 1200)" d="M564.677665393179,-1058.8385779740504A1200,1200 0 0,1 571.6234415895855,-1055.1050379110497L342.9740649537513,-633.0630227466298A720,720 0 0,0 338.8065992359074,-635.3031467844302Z" fill="rgb(206,219,156)" fill-rule="evenodd" stroke="rgb(255,255,255)" stroke-width="1"/><path transform="translate(1200, 1200)" d="M571.6234415895855,-1055.1050379110497A1200,1200 0 0,1 581.464515751091,-1049.7137785712584L348.8787094506546,-629.8282671427551A720,720 0 0,0 342.9740649537513,-633.0630227466298Z" fill="rgb(206,219,156)" fill-rule="evenodd" stroke="rgb(255,255,255)" stroke-width="1"/><path transform="translate(1200, 1200)" d="M564.0253536614655,-1059.1861972415704A1200,1200 0 0,1 564.677665393179,-1058.8385779740504L338.8065992359074,-635.3031467844302A720,720 0 0,0 338.4152121968793,-635.5117183449422Z" fill="rgb(206,219,156)" fill-rule="evenodd" stroke="rgb(255,255,255)" stroke-width="1"/><path transform="translate(1200, 1200)" d="M60.595359679834665,-717.4456093567452A720,720 0 0,1 102.80561460803438,-712.6226249601287L34.26853820267813,-237.54087498670958A240,240 0 0,0 20.198453226611555,-239.1485364522484Z" fill="rgb(115,117,181)" fill-rule="evenodd" stroke="rgb(255,255,255)" stroke-width="1"/><path transform="translate(1200, 1200)" d="M100.99226613305777,-1195.742682261242A1200,1200 0 0,1 107.077223695156,-1195.2131475873823L64.24633421709359,-717.1278885524293A720,720 0 0,0 60.595359679834665,-717.4456093567452Z" fill="rgb(181,207,107)" fill-rule="evenodd" stroke="rgb(255,255,255)" stroke-width="1"/><path transform="translate(1200, 1200)" d="M107.07722369515572,-1195.2131475873823A1200,1200 0 0,1 117.13215955574324,-1194.2696752399802L70.27929573344595,-716.5618051439882A720,720 0 0,0 64.24633421709343,-717.1278885524293Z" fill="rgb(181,207,107)" fill-rule="evenodd" stroke="rgb(255,255,255)" stroke-width="1"/><path transform="translate(1200, 1200)" d="M134.27220971411467,-1192.4642442012628A1200,1200 0 0,1 171.34269101339063,-1187.7043749335478L102.80561460803438,-712.6226249601287A720,720 0 0,0 80.56332582846879,-715.4785465207576Z" fill="rgb(181,207,107)" fill-rule="evenodd" stroke="rgb(255,255,255)" stroke-width="1"/><path transform="translate(1200, 1200)" d="M117.13215955574324,-1194.2696752399802A1200,1200 0 0,1 134.27220971411467,-1192.4642442012628L80.56332582846879,-715.4785465207576A720,720 0 0,0 70.27929573344595,-716.5618051439882Z" fill="rgb(181,207,107)" fill-rule="evenodd" stroke="rgb(255,255,255)" stroke-width="1"/><path transform="translate(1200, 1200)" d="M263.54844638746016,670.0315040404861A720,720 0 0,1 -295.16486856133616,656.7173671886325L-98.38828952044538,218.9057890628775A240,240 0 0,0 87.84948212915339,223.34383468016205Z" fill="rgb(115,117,181)" fill-rule="evenodd" stroke="rgb(255,255,255)" stroke-width="1"/><path transform="translate(1200, 1200)" d="M430.0748777565228,1120.2837138523046A1200,1200 0 0,1 408.0244467201139,1128.5016840389494L244.81466803206834,677.1010104233698A720,720 0 0,0 258.0449266539137,672.1702283113826Z" fill="rgb(140,162,82)" fill-rule="evenodd" stroke="rgb(255,255,255)" stroke-width="1"/><path transform="translate(1200, 1200)" d="M439.24741064576693,1116.7191734008102A1200,1200 0 0,1 430.0748777565228,1120.2837138523046L258.0449266539137,672.1702283113826A720,720 0 0,0 263.54844638746016,670.0315040404861Z" fill="rgb(140,162,82)" fill-rule="evenodd" stroke="rgb(255,255,255)" stroke-width="1"/><path transform="translate(1200, 1200)" d="M408.0244467201139,1128.5016840389494A1200,1200 0 0,1 -491.94144760222696,1094.5289453143876L-295.16486856133616,656.7173671886325A720,720 0 0,0 244.81466803206834,677.1010104233698Z" fill="rgb(140,162,82)" fill-rule="evenodd" stroke="rgb(255,255,255)" stroke-width="1"/><path transform="translate(1200, 1200)" d="M-55.48724306927141,-717.8587367000359A720,720 0 0,1 -39.718536285843086,-718.903636014807L-13.239512095281029,-239.63454533826902A240,240 0 0,0 -18.495747689757135,-239.28624556667864Z" fill="rgb(115,117,181)" fill-rule="evenodd" stroke="rgb(255,255,255)" stroke-width="1"/><path transform="translate(1200, 1200)" d="M-92.47873844878568,-1196.4312278333932A1200,1200 0 0,1 -88.43552294317732,-1196.7368793021158L-53.06131376590639,-718.0421275812695A720,720 0 0,0 -55.48724306927141,-717.8587367000359Z" fill="rgb(99,121,57)" fill-rule="evenodd" stroke="rgb(255,255,255)" stroke-width="1"/><path transform="translate(1200, 1200)" d="M-88.43552294317732,-1196.7368793021158A1200,1200 0 0,1 -80.51660459672102,-1197.2957347223012L-48.30996275803261,-718.3774408333808A720,720 0 0,0 -53.06131376590639,-718.0421275812695Z" fill="rgb(99,121,57)" fill-rule="evenodd" stroke="rgb(255,255,255)" stroke-width="1"/><path transform="translate(1200, 1200)" d="M-80.51660459672075,-1197.2957347223012A1200,1200 0 0,1 -66.19756047640514,-1198.1727266913451L-39.718536285843086,-718.903636014807A720,720 0 0,0 -48.309962758032455,-718.3774408333808Z" fill="rgb(99,121,57)" fill-rule="evenodd" stroke="rgb(255,255,255)" stroke-width="1"/><path transform="translate(1200, 1200)" d="M102.80561460803438,-712.6226249601287A720,720 0 0,1 150.13317016523672,-704.1732962958309L50.04439005507891,-234.7244320986103A240,240 0 0,0 34.26853820267813,-237.54087498670958Z" fill="rgb(115,117,181)" fill-rule="evenodd" stroke="rgb(255,255,255)" stroke-width="1"/><path transform="translate(1200, 1200)" d="M171.34269101339063,-1187.7043749335478A1200,1200 0 0,1 177.89543430486583,-1186.7405843121246L106.7372605829195,-712.0443505872748A720,720 0 0,0 102.80561460803438,-712.6226249601287Z" fill="rgb(231,203,148)" fill-rule="evenodd" stroke="rgb(255,255,255)" stroke-width="1"/><path transform="translate(1200, 1200)" d="M177.89543430486583,-1186.7405843121246A1200,1200 0 0,1 185.0971849479601,-1185.6386600159176L111.05831096877606,-711.3831960095506A720,720 0 0,0 106.7372605829195,-712.0443505872748Z" fill="rgb(231,203,148)" fill-rule="evenodd" stroke="rgb(255,255,255)" stroke-width="1"/><path transform="translate(1200, 1200)" d="M185.0971849479601,-1185.6386600159176A1200,1200 0 0,1 250.2219502753948,-1173.6221604930515L150.1331701652369,-704.1732962958309A720,720 0 0,0 111.05831096877606,-711.3831960095506Z" fill="rgb(231,203,148)" fill-rule="evenodd" stroke="rgb(255,255,255)" stroke-width="1"/><path transform="translate(1200, 1200)" d="M719.1834616695035,-34.280438460873626A720,720 0 0,1 644.3706163366705,321.226569265214L214.79020544555686,107.07552308840467A240,240 0 0,0 239.72782055650117,-11.42681282029121Z" fill="rgb(115,117,181)" fill-rule="evenodd" stroke="rgb(255,255,255)" stroke-width="1"/><path transform="translate(1200, 1200)" d="M1198.639102782506,-57.13406410145605A1200,1200 0 0,1 1073.9510272277842,535.3776154420233L644.3706163366705,321.226569265214A720,720 0 0,0 719.1834616695035,-34.280438460873626Z" fill="rgb(231,186,82)" fill-rule="evenodd" stroke="rgb(255,255,255)" stroke-width="1"/><path transform="translate(1200, 1200)" d="M202.0516768352754,-691.0681007600144A720,720 0 0,1 271.0135991136497,-667.0469466952577L90.33786637121658,-222.3489822317526A240,240 0 0,0 67.3505589450918,-230.35603358667146Z" fill="rgb(115,117,181)" fill-rule="evenodd" stroke="rgb(255,255,255)" stroke-width="1"/><path transform="translate(1200, 1200)" d="M400.1734448267465,-1131.3095129342344A1200,1200 0 0,1 451.6893318560826,-1111.7449111587628L271.01359911364955,-667.0469466952577A720,720 0 0,0 240.1040668960479,-678.7857077605406Z" fill="rgb(189,158,57)" fill-rule="evenodd" stroke="rgb(255,255,255)" stroke-width="1"/><path transform="translate(1200, 1200)" d="M376.9669779008083,-1139.2523414820491A1200,1200 0 0,1 400.1734448267465,-1131.3095129342344L240.1040668960479,-678.7857077605406A720,720 0 0,0 226.18018674048497,-683.5514048892295Z" fill="rgb(189,158,57)" fill-rule="evenodd" stroke="rgb(255,255,255)" stroke-width="1"/><path transform="translate(1200, 1200)" d="M336.752794725459,-1151.7801679333572A1200,1200 0 0,1 339.1156564800397,-1151.0866915789234L203.46939388802383,-690.652014947354A720,720 0 0,0 202.0516768352754,-691.0681007600144Z" fill="rgb(189,158,57)" fill-rule="evenodd" stroke="rgb(255,255,255)" stroke-width="1"/><path transform="translate(1200, 1200)" d="M339.11565648003943,-1151.0866915789236A1200,1200 0 0,1 343.95764931711585,-1149.6491358132896L206.37458959026952,-689.7894814879738A720,720 0 0,0 203.46939388802366,-690.6520149473541Z" fill="rgb(189,158,57)" fill-rule="evenodd" stroke="rgb(255,255,255)" stroke-width="1"/><path transform="translate(1200, 1200)" d="M354.6965352966013,-1146.3814233703313A1200,1200 0 0,1 376.9669779008083,-1139.2523414820491L226.18018674048497,-683.5514048892295A720,720 0 0,0 212.81792117796078,-687.8288540221988Z" fill="rgb(189,158,57)" fill-rule="evenodd" stroke="rgb(255,255,255)" stroke-width="1"/><path transform="translate(1200, 1200)" d="M343.95764931711585,-1149.6491358132896A1200,1200 0 0,1 354.6965352966013,-1146.3814233703313L212.81792117796078,-687.8288540221988A720,720 0 0,0 206.37458959026952,-689.7894814879738Z" fill="rgb(189,158,57)" fill-rule="evenodd" stroke="rgb(255,255,255)" stroke-width="1"/><path transform="translate(1200, 1200)" d="M422.61263952111295,-582.9224278726954A720,720 0 0,1 625.9298512888868,-355.82554892176046L208.64328376296226,-118.60851630725348A240,240 0 0,0 140.870879840371,-194.30747595756515Z" fill="rgb(115,117,181)" fill-rule="evenodd" stroke="rgb(255,255,255)" stroke-width="1"/><path transform="translate(1200, 1200)" d="M704.354399201855,-971.5373797878257A1200,1200 0 0,1 709.1044186057185,-968.0758872701282L425.4626511634311,-580.8455323620769A720,720 0 0,0 422.61263952111295,-582.9224278726954Z" fill="rgb(140,109,49)" fill-rule="evenodd" stroke="rgb(255,255,255)" stroke-width="1"/><path transform="translate(1200, 1200)" d="M743.0031417320823,-942.3090423933409A1200,1200 0 0,1 1043.2164188148113,-593.0425815362673L625.9298512888868,-355.82554892176046A720,720 0 0,0 445.8018850392494,-565.3854254360045Z" fill="rgb(140,109,49)" fill-rule="evenodd" stroke="rgb(255,255,255)" stroke-width="1"/><path transform="translate(1200, 1200)" d="M709.1044186057184,-968.0758872701284A1200,1200 0 0,1 743.0031417320823,-942.3090423933409L445.8018850392494,-565.3854254360045A720,720 0 0,0 425.462651163431,-580.845532362077Z" fill="rgb(140,109,49)" fill-rule="evenodd" stroke="rgb(255,255,255)" stroke-width="1"/><path transform="translate(1200, 1200)" d="M-63.287625740150226,-717.2131318012622A720,720 0 0,1 4.4087284769304716e-14,-720L1.469576158976824e-14,-240A240,240 0 0,0 -21.09587524671674,-239.07104393375405Z" fill="rgb(115,117,181)" fill-rule="evenodd" stroke="rgb(255,255,255)" stroke-width="1"/><path transform="translate(1200, 1200)" d="M-100.29795514750775,-1195.8011206689966A1200,1200 0 0,1 -80.57740108044273,-1197.2916446860895L-48.346440648265634,-718.3749868116537A720,720 0 0,0 -60.17877308850465,-717.480672401398Z" fill="rgb(231,150,156)" fill-rule="evenodd" stroke="rgb(255,255,255)" stroke-width="1"/><path transform="translate(1200, 1200)" d="M-80.57740108044273,-1197.2916446860895A1200,1200 0 0,1 7.347880794884119e-14,-1200L4.4087284769304716e-14,-720A720,720 0 0,0 -48.346440648265634,-718.3749868116537Z" fill="rgb(231,150,156)" fill-rule="evenodd" stroke="rgb(255,255,255)" stroke-width="1"/><path transform="translate(1200, 1200)" d="M-105.47937623358423,-1195.3552196687704A1200,1200 0 0,1 -104.96343298617721,-1195.4006348232197L-62.97805979170633,-717.2403808939317A720,720 0 0,0 -63.287625740150546,-717.2131318012622Z" fill="rgb(231,150,156)" fill-rule="evenodd" stroke="rgb(255,255,255)" stroke-width="1"/><path transform="translate(1200, 1200)" d="M-104.96343298617694,-1195.4006348232197A1200,1200 0 0,1 -100.29795514750775,-1195.8011206689966L-60.17877308850465,-717.480672401398A720,720 0 0,0 -62.978059791706166,-717.2403808939317Z" fill="rgb(231,150,156)" fill-rule="evenodd" stroke="rgb(255,255,255)" stroke-width="1"/><path transform="translate(1200, 1200)" d="M-295.16486856133616,656.7173671886325A720,720 0 0,1 -1.3226185430791414e-13,-720L-4.408728476930471e-14,-240A240,240 0 0,0 -98.38828952044538,218.9057890628775Z" fill="rgb(115,117,181)" fill-rule="evenodd" stroke="rgb(255,255,255)" stroke-width="1"/><path transform="translate(1200, 1200)" d="M-491.94144760222696,1094.5289453143876A1200,1200 0 0,1 -2.2043642384652357e-13,-1200L-1.3226185430791414e-13,-720A720,720 0 0,0 -295.16486856133616,656.7173671886325Z" fill="rgb(214,97,107)" fill-rule="evenodd" stroke="rgb(255,255,255)" stroke-width="1"/><path transform="translate(1200, 1200)" d="M150.13317016523672,-704.1732962958309A720,720 0 0,1 202.05167683527523,-691.0681007600144L67.35055894509175,-230.3560335866715A240,240 0 0,0 50.04439005507891,-234.7244320986103Z" fill="rgb(115,117,181)" fill-rule="evenodd" stroke="rgb(255,255,255)" stroke-width="1"/><path transform="translate(1200, 1200)" d="M275.87098407153724,-1167.8592381564663A1200,1200 0 0,1 296.7347138817996,-1162.7332065342791L178.04082832907977,-697.6399239205674A720,720 0 0,0 165.52259044292234,-700.7155428938797Z" fill="rgb(173,73,74)" fill-rule="evenodd" stroke="rgb(255,255,255)" stroke-width="1"/><path transform="translate(1200, 1200)" d="M250.22195027539453,-1173.6221604930515A1200,1200 0 0,1 252.23872345527738,-1173.1903623835528L151.34323407316643,-703.9142174301317A720,720 0 0,0 150.13317016523672,-704.1732962958309Z" fill="rgb(173,73,74)" fill-rule="evenodd" stroke="rgb(255,255,255)" stroke-width="1"/><path transform="translate(1200, 1200)" d="M296.7347138817996,-1162.7332065342791A1200,1200 0 0,1 336.7527947254587,-1151.7801679333575L202.05167683527523,-691.0681007600144A720,720 0 0,0 178.04082832907977,-697.6399239205674Z" fill="rgb(173,73,74)" fill-rule="evenodd" stroke="rgb(255,255,255)" stroke-width="1"/><path transform="translate(1200, 1200)" d="M259.3982235496575,-1171.6281669622329A1200,1200 0 0,1 275.87098407153724,-1167.8592381564663L165.52259044292234,-700.7155428938797A720,720 0 0,0 155.63893412979448,-702.9769001773398Z" fill="rgb(173,73,74)" fill-rule="evenodd" stroke="rgb(255,255,255)" stroke-width="1"/><path transform="translate(1200, 1200)" d="M252.2387234552776,-1173.1903623835528A1200,1200 0 0,1 259.3982235496577,-1171.6281669622329L155.63893412979462,-702.9769001773396A720,720 0 0,0 151.34323407316657,-703.9142174301317Z" fill="rgb(173,73,74)" fill-rule="evenodd" stroke="rgb(255,255,255)" stroke-width="1"/><path transform="translate(1200, 1200)" d="M29.248966511551863,-719.4056560508863A720,720 0 0,1 60.595359679834665,-717.4456093567452L20.198453226611555,-239.1485364522484A240,240 0 0,0 9.749655503850622,-239.80188535029544Z" fill="rgb(115,117,181)" fill-rule="evenodd" stroke="rgb(255,255,255)" stroke-width="1"/><path transform="translate(1200, 1200)" d="M84.77581214999168,-1197.0016966046076A1200,1200 0 0,1 100.99226613305753,-1195.7426822612422L60.595359679834516,-717.4456093567453A720,720 0 0,0 50.86548728999501,-718.2010179627646Z" fill="rgb(132,60,57)" fill-rule="evenodd" stroke="rgb(255,255,255)" stroke-width="1"/><path transform="translate(1200, 1200)" d="M62.353654866222065,-1198.378914085534A1200,1200 0 0,1 71.04710023366533,-1197.8949492958002L42.6282601401992,-718.7369695774801A720,720 0 0,0 37.412192919733236,-719.0273484513204Z" fill="rgb(132,60,57)" fill-rule="evenodd" stroke="rgb(255,255,255)" stroke-width="1"/><path transform="translate(1200, 1200)" d="M71.0471002336656,-1197.8949492958A1200,1200 0 0,1 84.77581214999195,-1197.0016966046076L50.865487289995166,-718.2010179627646A720,720 0 0,0 42.62826014019936,-718.7369695774801Z" fill="rgb(132,60,57)" fill-rule="evenodd" stroke="rgb(255,255,255)" stroke-width="1"/><path transform="translate(1200, 1200)" d="M48.74827751925311,-1199.0094267514771A1200,1200 0 0,1 53.78661238817332,-1198.7939774322376L32.27196743290399,-719.2763864593426A720,720 0 0,0 29.248966511551863,-719.4056560508863Z" fill="rgb(132,60,57)" fill-rule="evenodd" stroke="rgb(255,255,255)" stroke-width="1"/><path transform="translate(1200, 1200)" d="M53.78661238817332,-1198.7939774322376A1200,1200 0 0,1 62.353654866222065,-1198.378914085534L37.412192919733236,-719.0273484513204A720,720 0 0,0 32.27196743290399,-719.2763864593426Z" fill="rgb(132,60,57)" fill-rule="evenodd" stroke="rgb(255,255,255)" stroke-width="1"/><path transform="translate(1200, 1200)" d="M271.01359911364955,-667.0469466952577A720,720 0 0,1 338.4152121968793,-635.5117183449422L112.8050707322931,-211.83723944831408A240,240 0 0,0 90.33786637121652,-222.3489822317526Z" fill="rgb(115,117,181)" fill-rule="evenodd" stroke="rgb(255,255,255)" stroke-width="1"/><path transform="translate(1200, 1200)" d="M464.5348208298021,-1106.4390630471357A1200,1200 0 0,1 490.8386945077074,-1095.0239157086796L294.50321670462444,-657.0143494252078A720,720 0 0,0 278.72089249788127,-663.8634378282815Z" fill="rgb(222,158,214)" fill-rule="evenodd" stroke="rgb(255,255,255)" stroke-width="1"/><path transform="translate(1200, 1200)" d="M490.8386945077074,-1095.0239157086796A1200,1200 0 0,1 564.0253536614657,-1059.1861972415702L338.41521219687945,-635.5117183449421A720,720 0 0,0 294.50321670462444,-657.0143494252078Z" fill="rgb(222,158,214)" fill-rule="evenodd" stroke="rgb(255,255,255)" stroke-width="1"/><path transform="translate(1200, 1200)" d="M451.6893318560826,-1111.7449111587628A1200,1200 0 0,1 452.19612986479757,-1111.5388702763837L271.31767791887853,-666.9233221658302A720,720 0 0,0 271.01359911364955,-667.0469466952577Z" fill="rgb(222,158,214)" fill-rule="evenodd" stroke="rgb(255,255,255)" stroke-width="1"/><path transform="translate(1200, 1200)" d="M452.19612986479757,-1111.5388702763837A1200,1200 0 0,1 464.5348208298021,-1106.4390630471357L278.72089249788127,-663.8634378282815A720,720 0 0,0 271.31767791887853,-666.9233221658302Z" fill="rgb(222,158,214)" fill-rule="evenodd" stroke="rgb(255,255,255)" stroke-width="1"/><path transform="translate(1200, 1200)" d="M-63.287625740150226,-717.2131318012622A720,720 0 0,1 -62.46578553700628,-717.2851773438823L-20.821928512335425,-239.09505911462745A240,240 0 0,0 -21.09587524671674,-239.07104393375405Z" fill="rgb(115,117,181)" fill-rule="evenodd" stroke="rgb(255,255,255)" stroke-width="1"/><path transform="translate(1200, 1200)" d="M-105.47937623358371,-1195.3552196687704A1200,1200 0 0,1 -104.10964256167713,-1195.4752955731371L-62.46578553700628,-717.2851773438823A720,720 0 0,0 -63.287625740150226,-717.2131318012622Z" fill="rgb(206,109,189)" fill-rule="evenodd" stroke="rgb(255,255,255)" stroke-width="1"/><path transform="translate(1200, 1200)" d="M-62.46578553700628,-717.2851773438823A720,720 0 0,1 -55.48724306927157,-717.8587367000359L-18.495747689757188,-239.28624556667864A240,240 0 0,0 -20.821928512335425,-239.09505911462745Z" fill="rgb(115,117,181)" fill-rule="evenodd" stroke="rgb(255,255,255)" stroke-width="1"/><path transform="translate(1200, 1200)" d="M-104.10964256167713,-1195.4752955731371A1200,1200 0 0,1 -103.77312631215102,-1195.5045538413488L-62.263875787290615,-717.3027323048093A720,720 0 0,0 -62.46578553700628,-717.2851773438823Z" fill="rgb(165,81,148)" fill-rule="evenodd" stroke="rgb(255,255,255)" stroke-width="1"/><path transform="translate(1200, 1200)" d="M-103.03804069002223,-1195.5681336380462A1200,1200 0 0,1 -101.54531459997047,-1195.6958430482198L-60.92718875998228,-717.4175058289319A720,720 0 0,0 -61.82282441401334,-717.3408801828277Z" fill="rgb(165,81,148)" fill-rule="evenodd" stroke="rgb(255,255,255)" stroke-width="1"/><path transform="translate(1200, 1200)" d="M-103.77312631215075,-1195.5045538413488A1200,1200 0 0,1 -103.03804069002196,-1195.5681336380464L-61.822824414013176,-717.3408801828278A720,720 0 0,0 -62.26387578729045,-717.3027323048093Z" fill="rgb(165,81,148)" fill-rule="evenodd" stroke="rgb(255,255,255)" stroke-width="1"/><path transform="translate(1200, 1200)" d="M-101.54531459997074,-1195.6958430482198A1200,1200 0 0,1 -92.47873844878595,-1196.4312278333932L-55.48724306927157,-717.8587367000359A720,720 0 0,0 -60.92718875998244,-717.4175058289319Z" fill="rgb(165,81,148)" fill-rule="evenodd" stroke="rgb(255,255,255)" stroke-width="1"/><path transform="translate(1200, 1200)" d="M-19.53354292349784,-719.7349794895729A720,720 0 0,1 4.600213630653383,-719.9853040406813L1.5334045435511277,-239.9951013468938A240,240 0 0,0 -6.51118097449928,-239.9116598298576Z" fill="rgb(115,117,181)" fill-rule="evenodd" stroke="rgb(255,255,255)" stroke-width="1"/><path transform="translate(1200, 1200)" d="M-8.933357878271638,-1199.9667475047042A1200,1200 0 0,1 7.667022717755905,-1199.9755067344688L4.600213630653543,-719.9853040406813A720,720 0 0,0 -5.360014726962982,-719.9800485028226Z" fill="rgb(123,65,115)" fill-rule="evenodd" stroke="rgb(255,255,255)" stroke-width="1"/><path transform="translate(1200, 1200)" d="M-32.5559048724964,-1199.5582991492881A1200,1200 0 0,1 -32.28709906268724,-1199.5655643749183L-19.372259437612346,-719.739338624951A720,720 0 0,0 -19.53354292349784,-719.7349794895729Z" fill="rgb(123,65,115)" fill-rule="evenodd" stroke="rgb(255,255,255)" stroke-width="1"/><path transform="translate(1200, 1200)" d="M-32.28709906268698,-1199.5655643749183A1200,1200 0 0,1 -31.503183255632326,-1199.5864076608912L-18.901909953379395,-719.7518445965347A720,720 0 0,0 -19.372259437612186,-719.739338624951Z" fill="rgb(123,65,115)" fill-rule="evenodd" stroke="rgb(255,255,255)" stroke-width="1"/><path transform="translate(1200, 1200)" d="M-31.503183255632592,-1199.5864076608912A1200,1200 0 0,1 -30.16837691670448,-1199.6207188250007L-18.101026150022687,-719.7724312950005A720,720 0 0,0 -18.901909953379555,-719.7518445965347Z" fill="rgb(123,65,115)" fill-rule="evenodd" stroke="rgb(255,255,255)" stroke-width="1"/><path transform="translate(1200, 1200)" d="M-17.872843178670863,-1199.8668932330413A1200,1200 0 0,1 -8.933357878271638,-1199.9667475047042L-5.360014726962982,-719.9800485028226A720,720 0 0,0 -10.723705907202516,-719.9201359398248Z" fill="rgb(123,65,115)" fill-rule="evenodd" stroke="rgb(255,255,255)" stroke-width="1"/><path transform="translate(1200, 1200)" d="M-30.168376916704215,-1199.6207188250007A1200,1200 0 0,1 -24.598354333778158,-1199.747857245042L-14.759012600266894,-719.8487143470253A720,720 0 0,0 -18.101026150022527,-719.7724312950005Z" fill="rgb(123,65,115)" fill-rule="evenodd" stroke="rgb(255,255,255)" stroke-width="1"/><path transform="translate(1200, 1200)" d="M-24.598354333778158,-1199.747857245042A1200,1200 0 0,1 -17.872843178670863,-1199.8668932330413L-10.723705907202516,-719.9201359398248A720,720 0 0,0 -14.759012600266894,-719.8487143470253Z" fill="rgb(123,65,115)" fill-rule="evenodd" stroke="rgb(255,255,255)" stroke-width="1"/><path transform="translate(1200, 1200)" d="M644.3706163366705,321.226569265214A720,720 0 0,1 263.54844638746016,670.0315040404861L87.84948212915339,223.34383468016205A240,240 0 0,0 214.79020544555686,107.07552308840467Z" fill="rgb(115,117,181)" fill-rule="evenodd" stroke="rgb(255,255,255)" stroke-width="1"/><path transform="translate(1200, 1200)" d="M957.2263679984859,723.6834117267213A1200,1200 0 0,1 850.7317073211634,846.318830086167L510.43902439269806,507.7912980517002A720,720 0 0,0 574.3358207990916,434.21004703603273Z" fill="rgb(156,158,222)" fill-rule="evenodd" stroke="rgb(255,255,255)" stroke-width="1"/><path transform="translate(1200, 1200)" d="M1027.8232789900453,619.3377973014013A1200,1200 0 0,1 957.2263679984859,723.6834117267213L574.3358207990916,434.21004703603273A720,720 0 0,0 616.6939673940271,371.60267838084076Z" fill="rgb(156,158,222)" fill-rule="evenodd" stroke="rgb(255,255,255)" stroke-width="1"/><path transform="translate(1200, 1200)" d="M1073.9510272277842,535.3776154420233A1200,1200 0 0,1 1069.0423254401196,545.1132968636715L641.4253952640718,327.0679781182029A720,720 0 0,0 644.3706163366705,321.226569265214Z" fill="rgb(156,158,222)" fill-rule="evenodd" stroke="rgb(255,255,255)" stroke-width="1"/><path transform="translate(1200, 1200)" d="M1069.0423254401196,545.1132968636715A1200,1200 0 0,1 1027.8232789900453,619.3377973014013L616.6939673940271,371.60267838084076A720,720 0 0,0 641.4253952640718,327.0679781182029Z" fill="rgb(156,158,222)" fill-rule="evenodd" stroke="rgb(255,255,255)" stroke-width="1"/><path transform="translate(1200, 1200)" d="M850.7317073211634,846.318830086167A1200,1200 0 0,1 666.4227759887576,997.9382163458007L399.8536655932546,598.7629298074804A720,720 0 0,0 510.43902439269806,507.7912980517002Z" fill="rgb(156,158,222)" fill-rule="evenodd" stroke="rgb(255,255,255)" stroke-width="1"/><path transform="translate(1200, 1200)" d="M666.4227759887576,997.9382163458007A1200,1200 0 0,1 439.2474106457665,1116.7191734008104L263.5484463874599,670.0315040404863A720,720 0 0,0 399.8536655932546,598.7629298074804Z" fill="rgb(156,158,222)" fill-rule="evenodd" stroke="rgb(255,255,255)" stroke-width="1"/><path transform="translate(1200, 1200)" d="M625.9298512888868,-355.82554892176046A720,720 0 0,1 719.1834616695035,-34.28043846087366L239.72782055650117,-11.42681282029122A240,240 0 0,0 208.64328376296226,-118.60851630725348Z" fill="rgb(115,117,181)" fill-rule="evenodd" stroke="rgb(255,255,255)" stroke-width="1"/><path transform="translate(1200, 1200)" d="M1043.2164188148113,-593.0425815362673A1200,1200 0 0,1 1198.639102782506,-57.1340641014561L719.1834616695035,-34.28043846087366A720,720 0 0,0 625.9298512888868,-355.82554892176046Z" fill="rgb(115,117,181)" fill-rule="evenodd" stroke="rgb(255,255,255)" stroke-width="1"/><path transform="translate(1200, 1200)" d="M4.600213630653383,-719.9853040406813A720,720 0 0,1 29.248966511551863,-719.4056560508863L9.749655503850622,-239.80188535029544A240,240 0 0,0 1.5334045435511277,-239.9951013468938Z" fill="rgb(115,117,181)" fill-rule="evenodd" stroke="rgb(255,255,255)" stroke-width="1"/><path transform="translate(1200, 1200)" d="M7.667022717755638,-1199.9755067344688A1200,1200 0 0,1 24.62086864976954,-1199.747395424108L14.772521189861726,-719.8484372544648A720,720 0 0,0 4.600213630653383,-719.9853040406813Z" fill="rgb(74,85,132)" fill-rule="evenodd" stroke="rgb(255,255,255)" stroke-width="1"/><path transform="translate(1200, 1200)" d="M24.62086864976954,-1199.747395424108A1200,1200 0 0,1 48.74827751925311,-1199.0094267514771L29.248966511551863,-719.4056560508863A720,720 0 0,0 14.772521189861726,-719.8484372544648Z" fill="rgb(74,85,132)" fill-rule="evenodd" stroke="rgb(255,255,255)" stroke-width="1"/></g><g><text pointer-events="none" dy=".35em" transform="translate(1200, 1200) rotate(180)" fill="rgb(0,0,0)" text-anchor="middle">Budget</text><text pointer-events="none" dy=".35em" transform="translate(1180.25, 720.407) rotate(-92.3585)" fill="rgb(0,0,0)" text-anchor="middle">Agriculture</text><text pointer-events="none" dy=".35em" transform="translate(1163.22, 240.705) rotate(-92.1956)" fill="rgb(0,0,0)" text-anchor="middle">Farm income stabilization</text><text pointer-events="none" dy=".35em" transform="translate(1454.28, 792.887) rotate(-58.0113)" fill="rgb(0,0,0)" text-anchor="middle">Veterans Benefits and Services</text><text pointer-events="none" dy=".35em" transform="translate(1686.84, 372.601) rotate(-59.5276)" fill="rgb(0,0,0)" text-anchor="middle">Hospital and medical care for veterans</text><text pointer-events="none" dy=".35em" transform="translate(1736.15, 403.671) rotate(-56.0484)" fill="rgb(0,0,0)" text-anchor="middle">Income security for veterans</text><text pointer-events="none" dy=".35em" transform="translate(1254.49, 723.103) rotate(-83.4816)" fill="rgb(0,0,0)" text-anchor="middle">Administration of Justice</text><text pointer-events="none" dy=".35em" transform="translate(1322.26, 247.817) rotate(-82.6832)" fill="rgb(0,0,0)" text-anchor="middle">Federal law enforcement activities</text><text pointer-events="none" dy=".35em" transform="translate(1188.56, 1679.86) rotate(91.3651)" fill="rgb(0,0,0)" text-anchor="middle">National Defense</text><text pointer-events="none" dy=".35em" transform="translate(1535.26, 2099.56) rotate(69.5601)" fill="rgb(0,0,0)" text-anchor="middle">Atomic energy defense activities</text><text pointer-events="none" dy=".35em" transform="translate(1163.79, 2159.32) rotate(92.1618)" fill="rgb(0,0,0)" text-anchor="middle">Department of Defense-Military</text><text pointer-events="none" dy=".35em" transform="translate(1284.36, 727.471) rotate(-79.8777)" fill="rgb(0,0,0)" text-anchor="middle">Allowances</text><text pointer-events="none" dy=".35em" transform="translate(1374.19, 255.936) rotate(-79.5456)" fill="rgb(0,0,0)" text-anchor="middle">Jobs bill</text><text pointer-events="none" dy=".35em" transform="translate(1669.71, 1298.85) rotate(11.8839)" fill="rgb(0,0,0)" text-anchor="middle">Medicare</text><text pointer-events="none" dy=".35em" transform="translate(2139.42, 1397.69) rotate(11.8839)" fill="rgb(0,0,0)" text-anchor="middle">Medicare</text><text pointer-events="none" dy=".35em" transform="translate(1357.89, 746.712) rotate(-70.7955)" fill="rgb(0,0,0)" text-anchor="middle">Education, Training, Employment, and Social Services</text><text pointer-events="none" dy=".35em" transform="translate(1540.83, 302.542) rotate(-69.2043)" fill="rgb(0,0,0)" text-anchor="middle">Elementary, secondary, and vocational education</text><text pointer-events="none" dy=".35em" transform="translate(1510.87, 291.728) rotate(-71.1056)" fill="rgb(0,0,0)" text-anchor="middle">Higher education</text><text pointer-events="none" dy=".35em" transform="translate(1492.68, 285.703) rotate(-72.2494)" fill="rgb(0,0,0)" text-anchor="middle">Social services</text><text pointer-events="none" dy=".35em" transform="translate(1557.62, 879.829) rotate(-41.8377)" fill="rgb(0,0,0)" text-anchor="middle">Health</text><text pointer-events="none" dy=".35em" transform="translate(1928.02, 574.229) rotate(-40.6808)" fill="rgb(0,0,0)" text-anchor="middle">Health care services</text><text pointer-events="none" dy=".35em" transform="translate(1780.93, 435.726) rotate(-52.7611)" fill="rgb(0,0,0)" text-anchor="middle">Health research and training</text><text pointer-events="none" dy=".35em" transform="translate(730.666, 1099.38) rotate(192.101)" fill="rgb(0,0,0)" text-anchor="middle">Social Security</text><text pointer-events="none" dy=".35em" transform="translate(261.331, 998.752) rotate(192.101)" fill="rgb(0,0,0)" text-anchor="middle">Social security</text><text pointer-events="none" dy=".35em" transform="translate(1317.48, 734.598) rotate(-75.8334)" fill="rgb(0,0,0)" text-anchor="middle">International Affairs</text><text pointer-events="none" dy=".35em" transform="translate(1429.05, 267.726) rotate(-76.1964)" fill="rgb(0,0,0)" text-anchor="middle">Conduct of foreign affairs</text><text pointer-events="none" dy=".35em" transform="translate(1453.43, 274.056) rotate(-74.6929)" fill="rgb(0,0,0)" text-anchor="middle">International development and humanitarian assistance</text><text pointer-events="none" dy=".35em" transform="translate(1229.96, 720.936) rotate(-86.422)" fill="rgb(0,0,0)" text-anchor="middle">Natural Resources and Environment</text><text pointer-events="none" dy=".35em" transform="translate(1403.41, 765.233) rotate(-64.9265)" fill="rgb(0,0,0)" text-anchor="middle">Transportation</text><text pointer-events="none" dy=".35em" transform="translate(1582.18, 319.352) rotate(-66.5405)" fill="rgb(0,0,0)" text-anchor="middle">Air transportation</text><text pointer-events="none" dy=".35em" transform="translate(1622.19, 337.819) rotate(-63.9101)" fill="rgb(0,0,0)" text-anchor="middle">Ground transportation</text><text pointer-events="none" dy=".35em" transform="translate(1195.02, 720.026) rotate(-90.5943)" fill="rgb(0,0,0)" text-anchor="middle">General Government</text><text pointer-events="none" dy=".35em" transform="translate(1524.21, 1553.96) rotate(47.5126)" fill="rgb(0,0,0)" text-anchor="middle">Income Security</text><text pointer-events="none" dy=".35em" transform="translate(1924.84, 1829.44) rotate(40.9705)" fill="rgb(0,0,0)" text-anchor="middle">Federal employee retirement and disability</text><text pointer-events="none" dy=".35em" transform="translate(1995.12, 1737.95) rotate(34.081)" fill="rgb(0,0,0)" text-anchor="middle">Food and nutrition assistance</text><text pointer-events="none" dy=".35em" transform="translate(2039.27, 1666.07) rotate(29.0447)" fill="rgb(0,0,0)" text-anchor="middle">Housing assistance</text><text pointer-events="none" dy=".35em" transform="translate(1809.88, 1941.38) rotate(50.558)" fill="rgb(0,0,0)" text-anchor="middle">Other income security</text><text pointer-events="none" dy=".35em" transform="translate(1644.81, 2050.73) rotate(62.3967)" fill="rgb(0,0,0)" text-anchor="middle">Unemployment compensation</text><text pointer-events="none" dy=".35em" transform="translate(1661, 1066.3) rotate(-16.1731)" fill="rgb(0,0,0)" text-anchor="middle">Net Interest</text><text pointer-events="none" dy=".35em" transform="translate(2122.01, 932.602) rotate(-16.1731)" fill="rgb(0,0,0)" text-anchor="middle">Interest on Treasury debt securities (gross)</text><text pointer-events="none" dy=".35em" transform="translate(1211.28, 720.133) rotate(-88.6529)" fill="rgb(0,0,0)" text-anchor="middle">General Science, Space, and Technology</text><text pointer-events="none" dy=".35em" transform="translate(1229.35, 240.449) rotate(-88.2481)" fill="rgb(0,0,0)" text-anchor="middle">Space flight, research, and supporting activities</text></g></g></svg>